g LevelCubes2[-934]
v -6 0 -6
v 6 0 -6
v -6 2 -6
v 6 2 -6
v -6 2 -26
v 6 2 -26
v -6 0 -26
v 6 0 -26
v -6 2 -6
v 6 2 -6
v -6 2 -26
v 6 2 -26
v -6 0 -26
v 6 0 -6
v 6 0 -26
v -6 0 -6
v 6 0 -6
v 6 2 -26
v 6 0 -26
v 6 2 -6
v -6 0 -26
v -6 2 -6
v -6 0 -6
v -6 2 -26
v -6 0 26
v 6 0 26
v -6 2 26
v 6 2 26
v -6 2 6
v 6 2 6
v -6 0 6
v 6 0 6
v -6 2 26
v 6 2 26
v -6 2 6
v 6 2 6
v -6 0 6
v 6 0 26
v 6 0 6
v -6 0 26
v 6 0 26
v 6 2 6
v 6 0 6
v 6 2 26
v -6 0 6
v -6 2 26
v -6 0 26
v -6 2 6
v -26 0 26
v -6 0 26
v -26 2 26
v -6 2 26
v -26 2 -26
v -6 2 -26
v -26 0 -26
v -6 0 -26
v -26 2 26
v -6 2 26
v -26 2 -26
v -6 2 -26
v -26 0 -26
v -6 0 26
v -6 0 -26
v -26 0 26
v -6 0 26
v -6 2 -26
v -6 0 -26
v -6 2 26
v -26 0 -26
v -26 2 26
v -26 0 26
v -26 2 -26
v 6 0 26
v 26 0 26
v 6 2 26
v 26 2 26
v 6 2 -26
v 26 2 -26
v 6 0 -26
v 26 0 -26
v 6 2 26
v 26 2 26
v 6 2 -26
v 26 2 -26
v 6 0 -26
v 26 0 26
v 26 0 -26
v 6 0 26
v 26 0 26
v 26 2 -26
v 26 0 -26
v 26 2 26
v 6 0 -26
v 6 2 26
v 6 0 26
v 6 2 -26
vn 0 0 1
vn 0 0 1
vn 0 0 1
vn 0 0 1
vn 0 1 0
vn 0 1 0
vn 0 0 -1
vn 0 0 -1
vn 0 1 0
vn 0 1 0
vn 0 0 -1
vn 0 0 -1
vn 0 -1 0
vn 0 -1 0
vn 0 -1 0
vn 0 -1 0
vn 1 0 0
vn 1 0 0
vn 1 0 0
vn 1 0 0
vn -1 0 0
vn -1 0 0
vn -1 0 0
vn -1 0 0
vn 0 0 1
vn 0 0 1
vn 0 0 1
vn 0 0 1
vn 0 1 0
vn 0 1 0
vn 0 0 -1
vn 0 0 -1
vn 0 1 0
vn 0 1 0
vn 0 0 -1
vn 0 0 -1
vn 0 -1 0
vn 0 -1 0
vn 0 -1 0
vn 0 -1 0
vn 1 0 0
vn 1 0 0
vn 1 0 0
vn 1 0 0
vn -1 0 0
vn -1 0 0
vn -1 0 0
vn -1 0 0
vn 0 0 1
vn 0 0 1
vn 0 0 1
vn 0 0 1
vn 0 1 0
vn 0 1 0
vn 0 0 -1
vn 0 0 -1
vn 0 1 0
vn 0 1 0
vn 0 0 -1
vn 0 0 -1
vn 0 -1 0
vn 0 -1 0
vn 0 -1 0
vn 0 -1 0
vn 1 0 0
vn 1 0 0
vn 1 0 0
vn 1 0 0
vn -1 0 0
vn -1 0 0
vn -1 0 0
vn -1 0 0
vn 0 0 1
vn 0 0 1
vn 0 0 1
vn 0 0 1
vn 0 1 0
vn 0 1 0
vn 0 0 -1
vn 0 0 -1
vn 0 1 0
vn 0 1 0
vn 0 0 -1
vn 0 0 -1
vn 0 -1 0
vn 0 -1 0
vn 0 -1 0
vn 0 -1 0
vn 1 0 0
vn 1 0 0
vn 1 0 0
vn 1 0 0
vn -1 0 0
vn -1 0 0
vn -1 0 0
vn -1 0 0
vt 0 0
vt 12 0
vt 0 2
vt 12 2
vt 0 20
vt 12 20
vt 0 2
vt 12 2
vt 0 0
vt 12 0
vt 0 0
vt 12 0
vt 0 0
vt 12 20
vt 12 0
vt 0 20
vt 0 0
vt 20 2
vt 20 0
vt 0 2
vt 0 0
vt 20 2
vt 20 0
vt 0 2
vt 0 0
vt 12 0
vt 0 2
vt 12 2
vt 0 20
vt 12 20
vt 0 2
vt 12 2
vt 0 0
vt 12 0
vt 0 0
vt 12 0
vt 0 0
vt 12 20
vt 12 0
vt 0 20
vt 0 0
vt 20 2
vt 20 0
vt 0 2
vt 0 0
vt 20 2
vt 20 0
vt 0 2
vt 0 0
vt 20 0
vt 0 2
vt 20 2
vt 0 52
vt 20 52
vt 0 2
vt 20 2
vt 0 0
vt 20 0
vt 0 0
vt 20 0
vt 0 0
vt 20 52
vt 20 0
vt 0 52
vt 0 0
vt 52 2
vt 52 0
vt 0 2
vt 0 0
vt 52 2
vt 52 0
vt 0 2
vt 0 0
vt 20 0
vt 0 2
vt 20 2
vt 0 52
vt 20 52
vt 0 2
vt 20 2
vt 0 0
vt 20 0
vt 0 0
vt 20 0
vt 0 0
vt 20 52
vt 20 0
vt 0 52
vt 0 0
vt 52 2
vt 52 0
vt 0 2
vt 0 0
vt 52 2
vt 52 0
vt 0 2
f 2/2/2 4/4/4 1/1/1
f 4/4/4 3/3/3 1/1/1
f 10/10/10 6/6/6 9/9/9
f 6/6/6 5/5/5 9/9/9
f 12/12/12 8/8/8 11/11/11
f 8/8/8 7/7/7 11/11/11
f 15/15/15 14/14/14 13/13/13
f 14/14/14 16/16/16 13/13/13
f 19/19/19 18/18/18 17/17/17
f 18/18/18 20/20/20 17/17/17
f 23/23/23 22/22/22 21/21/21
f 22/22/22 24/24/24 21/21/21
f 26/26/26 28/28/28 25/25/25
f 28/28/28 27/27/27 25/25/25
f 34/34/34 30/30/30 33/33/33
f 30/30/30 29/29/29 33/33/33
f 36/36/36 32/32/32 35/35/35
f 32/32/32 31/31/31 35/35/35
f 39/39/39 38/38/38 37/37/37
f 38/38/38 40/40/40 37/37/37
f 43/43/43 42/42/42 41/41/41
f 42/42/42 44/44/44 41/41/41
f 47/47/47 46/46/46 45/45/45
f 46/46/46 48/48/48 45/45/45
f 50/50/50 52/52/52 49/49/49
f 52/52/52 51/51/51 49/49/49
f 58/58/58 54/54/54 57/57/57
f 54/54/54 53/53/53 57/57/57
f 60/60/60 56/56/56 59/59/59
f 56/56/56 55/55/55 59/59/59
f 63/63/63 62/62/62 61/61/61
f 62/62/62 64/64/64 61/61/61
f 67/67/67 66/66/66 65/65/65
f 66/66/66 68/68/68 65/65/65
f 71/71/71 70/70/70 69/69/69
f 70/70/70 72/72/72 69/69/69
f 74/74/74 76/76/76 73/73/73
f 76/76/76 75/75/75 73/73/73
f 82/82/82 78/78/78 81/81/81
f 78/78/78 77/77/77 81/81/81
f 84/84/84 80/80/80 83/83/83
f 80/80/80 79/79/79 83/83/83
f 87/87/87 86/86/86 85/85/85
f 86/86/86 88/88/88 85/85/85
f 91/91/91 90/90/90 89/89/89
f 90/90/90 92/92/92 89/89/89
f 95/95/95 94/94/94 93/93/93
f 94/94/94 96/96/96 93/93/93
